<svg xmlns:xlink="http://www.w3.org/1999/xlink" xmlns="http://www.w3.org/2000/svg" width="32" height="32" viewBox="0 0 32 32"><path d="M16 4.96c2.32 0 4.67.04 6.99.11.59.02 1.15.16 1.69.35-.72-1.1-1.95-1.87-3.31-1.91-1.79-.05-3.58-.07-5.37-.07s-3.58.02-5.37.07c-1.36.04-2.59.81-3.31 1.91.54-.2 1.1-.33 1.7-.35 2.31-.07 4.66-.11 6.98-.11zM15.98 8c2.83 0 5.7.05 8.53.14.59.02 1.15.16 1.68.35-.24-.35-.52-.68-.85-.94-.67-.55-1.51-.91-2.4-.94-2.32-.07-4.63-.11-6.94-.11s-4.62.04-6.94.11c-.89.03-1.73.39-2.41.94-.33.26-.6.59-.84.93.52-.19 1.07-.32 1.64-.34 2.84-.1 5.71-.14 8.53-.14zm12.48 5.68c-.03-1.19-.64-2.27-1.53-3.01-.69-.58-1.55-.95-2.47-.99-2.83-.09-5.65-.14-8.48-.14s-5.65.05-8.48.14c-.91.03-1.75.4-2.43.96-.91.74-1.53 1.84-1.56 3.04-.1 3.59-.1 7.19 0 10.78.06 2.11 1.88 3.93 4 4 2.83.09 5.65.14 8.48.14s5.65-.05 8.48-.14c2.11-.08 3.94-1.89 4-4 .08-3.59.08-7.19-.01-10.78zM15.98 24.07c-2.76 0-5-2.24-5-5s2.24-5.01 5-5.01v5.01h5.01c0 2.76-2.24 5-5.01 5zm1.14-6.14v-5.01c2.76 0 5.01 2.24 5.01 5.01h-5.01z" fill="#FFFFFF"></path></svg>