<svg xmlns:xlink="http://www.w3.org/1999/xlink" xmlns="http://www.w3.org/2000/svg" width="32" height="32" viewBox="0 0 32 32"><path d="m27.48 10.09-3.44 2.46c-.02-1.16-.02-2.32-.05-3.48-.07-2.11-1.89-3.93-4-4-4.63-.14-9.24-.14-13.87 0-2.11.07-3.94 1.89-4 4-.14 4.62-.14 9.24 0 13.86.07 2.11 1.89 3.93 4 4 4.63.14 9.24.14 13.87 0 2.11-.07 3.94-1.89 4-4 .03-1.16.03-2.32.05-3.48l3.44 2.46c1.38.98 2.51.4 2.51-1.29v-9.24c0-1.69-1.13-2.27-2.51-1.29zm-10.93 7.44-5.44 3.12c-1.47.84-2.67.15-2.67-1.55v-6.21c0-1.69 1.2-2.39 2.67-1.55l5.44 3.12c1.47.85 1.47 2.23 0 3.07z" fill="#FFFFFF"></path></svg>