<svg xmlns:xlink="http://www.w3.org/1999/xlink" xmlns="http://www.w3.org/2000/svg" width="32" height="32" viewBox="0 0 32 32"><path d="M29.43 14.39c-.84-3.95-2.39-7.24-4.06-9a4.08 4.08 0 0 0-6.73 1.43c-.12.33-.21.7-.3 1.08L4.28 15.67c-.28-.33-.73-.5-1.19-.4s-.8.44-.92.85c-.28.88-.27 2.39.09 4.04.35 1.66.95 3.04 1.56 3.73.28.33.73.5 1.19.4s.8-.44.92-.85l.98.08 6.6.56c.15.02.28.15.32.31.04.21-.09.41-.3.46l-3.53.76c.99 1.62 2.92 2.54 4.89 2.12 1.72-.36 2.98-1.64 3.45-3.22l3.6.31c.23.32.47.61.71.86a4.08 4.08 0 0 0 6.73-1.43c.81-2.27.89-5.92.05-9.86zm-8.26-1.12c0-.01-.01-.03-.02-.04-.11-.5-.21-1.01-.32-1.51-.17-.78.27-1.91 1.09-2.22.5-.17 1.01-.28 1.53-.33.87-.04 1.73.81 1.9 1.59.11.5.21 1.01.32 1.51v.05c.31 1.55-.37 3.63-.54 4.79h-.01.01l-1.51.32c-.63-1-2.1-2.62-2.45-4.16zm5.22 8.59c-.63.27-1.3.42-1.99.42-.53-.01-1.04-.52-1.14-.99-.09-.4-.17-.8-.26-1.21-.1-.47.16-1.14.64-1.37.63-.27 1.3-.42 1.99-.42.53.01 1.04.52 1.14.99.09.4.17.8.26 1.21.1.47-.16 1.14-.64 1.37z" fill="#FFFFFF"></path></svg>