<svg xmlns:xlink="http://www.w3.org/1999/xlink" xmlns="http://www.w3.org/2000/svg" width="32" height="32" viewBox="0 0 32 32"><path fill="#FFFFFF" d="M17.2 17.4h-2.3c-.4 0-.8.3-.8.8v1.6l.1.4c.5 1 1.3 1.4 1.7 1.5h.2c.3-.1 1.2-.6 1.7-1.5l.1-.4v-1.6c0-.5-.3-.8-.7-.8zm11.4-3.7a4.3 4.3 0 0 0-.2-1 4 4 0 0 0-1.4-2c-.7-.6-1.5-1-2.5-1l-2.3-.1v-2a4.3 4.3 0 0 0-4-4H14a4.3 4.3 0 0 0-4 4v2l-2.4.1c-.9 0-1.8.4-2.4 1-.9.7-1.5 1.8-1.6 3v10.8a4.3 4.3 0 0 0 4 4l8.5.1 8.5-.1a4.3 4.3 0 0 0 4-4V13.7zM13.8 6.6h4.6c.4 0 .8.3.8.8v2.2H13V7.4c0-.4.3-.8.8-.8zm12.8 11.6c0 1.3-1.1 2.3-2.4 2.3h-4.1l-.3.7c-.9 2.1-2.8 2.9-3.5 3.2h-.6c-.7-.3-2.6-1.1-3.5-3.2l-.3-.7H7.8c-1.3 0-2.3-1-2.3-2.3v-.4c0-.2.2-.4.4-.4l.3.1.3.3c.4.3.8.4 1.3.4h4c0-1.7 1.4-3.1 3.1-3.1h2.3c1.7 0 3.1 1.4 3.1 3.1h4c.5 0 .9-.2 1.3-.4l.3-.3.3-.1c.2 0 .4.2.4.4v.4z"></path></svg>