<svg xmlns:xlink="http://www.w3.org/1999/xlink" xmlns="http://www.w3.org/2000/svg" width="32" height="32" viewBox="0 0 32 32"><path d="M28.5 9.1c-.1-2.1-1.9-3.9-4-4-5.6-.2-11.3-.2-17 0-2.1.1-3.9 1.9-4 4-.1 3.6-.1 7.2 0 10.8.1 2.1 1.9 3.9 4 4 1.4 0 2.8 0 4.2.1l2.5 3.5c1 1.4 2.6 1.4 3.6 0l2.5-3.5c1.4 0 2.8 0 4.2-.1 2.1-.1 3.9-1.9 4-4 .1-3.6.1-7.2 0-10.8zm-6.6 5.5c-.1.4-.2.7-.5 1-.3.5-1.5 2.2-4.8 4.6h-1.4c-2.5-1.9-3.8-3.3-4.4-4.1-.1-.2-.2-.3-.3-.4v-.1c-.2-.3-.4-.6-.5-1-.1-.3-.1-.6-.1-.9 0-.2 0-.4.1-.5.1-.7.4-1.3.9-1.8.6-.6 1.4-.9 2.2-.9 1.3 0 2.4.8 2.9 1.8.5-1.1 1.6-1.8 2.9-1.8 1.8 0 3.2 1.4 3.2 3.2-.1.3-.1.6-.2.9z" fill="#FFFFFF"></path></svg>