<svg xmlns:xlink="http://www.w3.org/1999/xlink" xmlns="http://www.w3.org/2000/svg" width="32" height="32" viewBox="0 0 32 32"><path d="M28.46 13.69c-.05-2.11-1.87-3.93-3.98-4h-.04V7.08c0-.21-.09-.4-.23-.54l-2.62-2.62a.764.764 0 0 0-.54-.23H9.87C8.6 3.69 7.56 4.73 7.56 6v3.7h-.04c-2.11.08-3.94 1.9-3.98 4-.04 2.05-.04 5.65 0 7.7.05 2.11 1.87 3.93 3.98 4h.04v.61c0 1.27 1.04 2.31 2.31 2.31h12.26c1.27 0 2.31-1.04 2.31-2.31v-.62h.04c2.11-.08 3.94-1.9 3.98-4 .04-2.05.04-5.65 0-7.7zM8.91 17.92c-.51-.02-.96-.47-.98-.98-.02-.62-.02-1.24 0-1.85.02-.51.48-.96.98-.98.62-.02 1.23-.02 1.85 0 .51.02.96.47.98.98.02.62.02 1.24 0 1.85-.02.51-.48.96-.98.98-.61.02-1.23.02-1.85 0zm13.17 7.27c0 .42-.35.77-.77.77H10.69c-.42 0-.77-.35-.77-.77v-2.22h12.16v2.22zm0-13.8H9.92V6.8c0-.42.35-.77.77-.77h8.39v3h3v2.36z" fill="#FFFFFF"></path></svg>